<svg width="1431" height="1431" xmlns="http://www.w3.org/2000/svg" xmlns:xlink="http://www.w3.org/1999/xlink" overflow="hidden"><defs><filter id="fx0" x="-10%" y="-10%" width="120%" height="120%" filterUnits="userSpaceOnUse" primitiveUnits="userSpaceOnUse"><feComponentTransfer color-interpolation-filters="sRGB"><feFuncR type="discrete" tableValues="0 0"/><feFuncG type="discrete" tableValues="0 0"/><feFuncB type="discrete" tableValues="0 0"/><feFuncA type="linear" slope="0.309804" intercept="0"/></feComponentTransfer><feGaussianBlur stdDeviation="6.10684 6.10684"/></filter><clipPath id="clip1"><rect x="2299" y="697" width="1431" height="1431"/></clipPath><clipPath id="clip2"><rect x="-16.655" y="-16.655" width="173.212" height="173.212"/></clipPath><clipPath id="clip3"><rect x="0" y="0" width="477" height="477"/></clipPath><linearGradient x1="238.565" y1="238.536" x2="83.1104" y2="393.991" gradientUnits="userSpaceOnUse" spreadMethod="reflect" id="fill4"><stop offset="0" stop-color="#7FCCB6" stop-opacity="0"/><stop offset="0.38" stop-color="#7FCCB6" stop-opacity="0"/><stop offset="0.67" stop-color="#74A7B2"/><stop offset="1" stop-color="#74A7B2"/></linearGradient><linearGradient x1="238.565" y1="238.537" x2="394.02" y2="83.0817" gradientUnits="userSpaceOnUse" spreadMethod="reflect" id="fill5"><stop offset="0" stop-color="#6FEEB7" stop-opacity="0"/><stop offset="0.38" stop-color="#6FEEB7" stop-opacity="0"/><stop offset="0.67" stop-color="#6FEEB7"/><stop offset="1" stop-color="#6FEEB7"/></linearGradient><linearGradient x1="3247.54" y1="657.074" x2="2314.16" y2="1590.46" gradientUnits="userSpaceOnUse" spreadMethod="reflect" id="fill6"><stop offset="0" stop-color="#6FEEB7"/><stop offset="0.23" stop-color="#6FEEB7"/><stop offset="0.83" stop-color="#7CF9D6"/><stop offset="1" stop-color="#7CF9D6"/></linearGradient><linearGradient x1="2780.85" y1="2057.15" x2="3714.23" y2="1123.76" gradientUnits="userSpaceOnUse" spreadMethod="reflect" id="fill7"><stop offset="0" stop-color="#7FCCB6"/><stop offset="0.16" stop-color="#7FCCB6"/><stop offset="0.87" stop-color="#74A7B2"/><stop offset="1" stop-color="#74A7B2"/></linearGradient><linearGradient x1="3014.2" y1="1357.11" x2="2547.51" y2="1823.8" gradientUnits="userSpaceOnUse" spreadMethod="reflect" id="fill8"><stop offset="0" stop-color="#7FCCB6" stop-opacity="0"/><stop offset="0.38" stop-color="#7FCCB6" stop-opacity="0"/><stop offset="0.67" stop-color="#74A7B2"/><stop offset="1" stop-color="#74A7B2"/></linearGradient><linearGradient x1="3014.19" y1="1357.11" x2="3480.89" y2="890.419" gradientUnits="userSpaceOnUse" spreadMethod="reflect" id="fill9"><stop offset="0" stop-color="#6FEEB7" stop-opacity="0"/><stop offset="0.38" stop-color="#6FEEB7" stop-opacity="0"/><stop offset="0.67" stop-color="#6FEEB7"/><stop offset="1" stop-color="#6FEEB7"/></linearGradient><linearGradient x1="3005.72" y1="1070.89" x2="2401.02" y2="1675.59" gradientUnits="userSpaceOnUse" spreadMethod="reflect" id="fill10"><stop offset="0" stop-color="#8FAFF2"/><stop offset="0.29" stop-color="#8FAFF2"/><stop offset="0.66" stop-color="#74A7B2"/><stop offset="1" stop-color="#74A7B2"/></linearGradient><linearGradient x1="3023.53" y1="1642.47" x2="3628.23" y2="1037.77" gradientUnits="userSpaceOnUse" spreadMethod="reflect" id="fill11"><stop offset="0" stop-color="#8FAFF2"/><stop offset="0.29" stop-color="#8FAFF2"/><stop offset="0.66" stop-color="#70EDB7"/><stop offset="1" stop-color="#70EDB7"/></linearGradient></defs><g clip-path="url(#clip1)" transform="translate(-2299 -697)"><g clip-path="url(#clip2)" filter="url(#fx0)" transform="matrix(3.0021 0 0 3.0021 2298 696)"><g clip-path="url(#clip3)"><path d="M394.02 83.0818 352.001 125.101 352.001 125.101C289.352 62.4525 187.779 62.4526 125.13 125.101 62.4816 187.75 62.4815 289.323 125.13 351.972L125.13 351.972 83.1105 393.992 83.1104 393.991C-2.7449 308.136-2.74484 168.937 83.1105 83.0818 168.966-2.77354 308.165-2.77361 394.02 83.0816Z" fill="#FF0000" fill-rule="evenodd"/><path d="M83.1104 393.991 125.13 351.972 125.13 351.972C187.778 414.621 289.352 414.621 352 351.972 414.649 289.324 414.649 187.75 352.001 125.102L352 125.101 394.02 83.0817 394.02 83.0818C479.876 168.937 479.875 308.136 394.02 393.991 308.165 479.847 168.966 479.847 83.1105 393.992Z" fill="#FF0000" fill-rule="evenodd"/><path d="M83.1107 83.0815 125.13 125.101 125.13 125.101C62.4813 187.75 62.4813 289.323 125.13 351.972 187.778 414.62 289.352 414.62 352 351.971L352 351.971 394.02 393.991 394.02 393.991C308.165 479.846 168.966 479.846 83.1104 393.991-2.74488 308.136-2.74481 168.937 83.1105 83.0817Z" fill="url(#fill4)" fill-rule="evenodd"/><path d="M394.02 393.991 352 351.972 352 351.972C414.649 289.323 414.649 187.75 352.001 125.101 289.352 62.4529 187.779 62.453 125.13 125.102L125.13 125.102 83.1102 83.0821 83.1103 83.0819C168.966-2.77344 308.165-2.7735 394.02 83.0817 479.875 168.937 479.875 308.136 394.02 393.991Z" fill="url(#fill5)" fill-rule="evenodd"/><path d="M284.822 192.279 243.884 233.218 233.681 224.884C200.712 203.116 155.909 206.744 126.885 235.768 97.8615 264.792 94.2334 309.595 116.001 342.564L124.335 352.767 83.3961 393.706 67.6431 374.421C31.0372 318.979 37.1384 243.637 85.9462 194.829 134.754 146.022 210.096 139.921 265.537 176.526Z" fill="#FF0000" fill-rule="evenodd"/><path d="M192.593 284.508 233.532 243.569 243.735 251.904C276.704 273.672 321.507 270.043 350.53 241.02 379.554 211.996 383.182 167.193 361.415 134.224L353.081 124.021 394.02 83.082 409.773 102.367C446.379 157.809 440.278 233.151 391.47 281.958 342.662 330.766 267.32 336.867 211.879 300.262Z" fill="#FF0000" fill-rule="evenodd"/></g></g><path d="M3480.89 890.42 3354.74 1016.57 3354.74 1016.57C3166.66 828.488 2861.73 828.489 2673.65 1016.57 2485.58 1204.64 2485.58 1509.58 2673.65 1697.65L2673.65 1697.65 2547.51 1823.8 2547.51 1823.8C2289.76 1566.05 2289.76 1148.17 2547.51 890.42 2805.25 632.674 3223.14 632.673 3480.89 890.419Z" fill="url(#fill6)" fill-rule="evenodd"/><path d="M2547.51 1823.8 2673.65 1697.65 2673.65 1697.65C2861.73 1885.73 3166.66 1885.73 3354.74 1697.65 3542.82 1509.58 3542.82 1204.64 3354.74 1016.57L3354.74 1016.57 3480.89 890.419 3480.89 890.42C3738.63 1148.17 3738.63 1566.05 3480.89 1823.8 3223.14 2081.55 2805.25 2081.55 2547.51 1823.8Z" fill="url(#fill7)" fill-rule="evenodd"/><path d="M2547.51 890.419 2673.65 1016.56 2673.65 1016.57C2485.57 1204.64 2485.57 1509.58 2673.65 1697.65 2861.73 1885.73 3166.66 1885.73 3354.74 1697.65L3354.74 1697.65 3480.89 1823.8 3480.89 1823.8C3223.14 2081.55 2805.25 2081.55 2547.51 1823.8 2289.76 1566.05 2289.76 1148.17 2547.51 890.419Z" fill="url(#fill8)" fill-rule="evenodd"/><path d="M3480.88 1823.8 3354.74 1697.65 3354.74 1697.65C3542.82 1509.58 3542.82 1204.64 3354.74 1016.57 3166.66 828.49 2861.73 828.49 2673.65 1016.57L2673.65 1016.57 2547.5 890.42 2547.51 890.42C2805.25 632.674 3223.14 632.673 3480.89 890.419 3738.63 1148.16 3738.63 1566.05 3480.89 1823.8Z" fill="url(#fill9)" fill-rule="evenodd"/><path d="M3153.06 1218.24 3030.16 1341.14 2999.53 1316.12C2900.56 1250.77 2766.05 1261.67 2678.92 1348.8 2591.79 1435.93 2580.9 1570.43 2646.25 1669.41L2671.27 1700.04 2548.36 1822.94 2501.07 1765.05C2391.18 1598.61 2409.49 1372.42 2556.02 1225.9 2702.54 1079.37 2928.73 1061.05 3095.17 1170.95Z" fill="url(#fill10)" fill-rule="evenodd"/><path d="M2876.18 1495.12 2999.09 1372.22 3029.72 1397.24C3128.69 1462.59 3263.19 1451.7 3350.33 1364.56 3437.46 1277.43 3448.35 1142.93 3383 1043.95L3357.98 1013.32 3480.89 890.42 3528.18 948.316C3638.07 1114.76 3619.76 1340.94 3473.23 1487.47 3326.7 1633.99 3100.52 1652.31 2934.08 1542.41Z" fill="url(#fill11)" fill-rule="evenodd"/></g></svg>